<?xml version="1.0" encoding="UTF-8"?>
<svg id="Layer_1" xmlns="http://www.w3.org/2000/svg" version="1.1" viewBox="0 0 756 502">
  <!-- Generator: Adobe Illustrator 29.5.1, SVG Export Plug-In . SVG Version: 2.1.0 Build 141)  -->
  <defs>
    <style>
      .st0 {
        font-size: 20px;
      }

      .st0, .st1, .st2, .st3, .st4, .st5, .st6, .st7, .st8 {
        isolation: isolate;
      }

      .st0, .st5, .st7, .st8 {
        font-family: Arial-BoldMT, Arial;
        font-weight: 700;
      }

      .st1, .st2 {
        fill: #fff;
      }

      .st1, .st2, .st4, .st6 {
        font-family: ArialMT, Arial;
      }

      .st1, .st4 {
        font-size: 12px;
      }

      .st9 {
        fill: #90be6d;
        stroke: #43aa8b;
      }

      .st9, .st10, .st11, .st12, .st13, .st14 {
        stroke-width: 2px;
      }

      .st2, .st6, .st8 {
        font-size: 14px;
      }

      .st10 {
        fill: #d1e0f0;
      }

      .st10, .st15 {
        stroke: #2c5aa0;
      }

      .st11 {
        fill: #577590;
        stroke: #277da1;
      }

      .st16 {
        fill: none;
        stroke: #000;
        stroke-dasharray: 5 5;
        stroke-linecap: round;
        stroke-linejoin: round;
        stroke-width: .25px;
      }

      .st5 {
        font-size: 16px;
      }

      .st15 {
        fill: #9cb7d8;
      }

      .st12 {
        fill: #b8e0d2;
        stroke: #2a9d8f;
      }

      .st13 {
        fill: #f9c74f;
        stroke: #f3722c;
      }

      .st7 {
        font-size: 24px;
      }

      .st14 {
        fill: #f8ad9d;
        stroke: #f94144;
      }
    </style>
  </defs>
  <g class="st3">
    <g class="st3">
      <text class="st7" transform="translate(71.2 40)"><tspan x="0" y="0">DICOM Architecture: Monolithic vs. Modular Approach</tspan></text>
    </g>
  </g>
  <g class="st3">
    <text class="st0" transform="translate(50.66 80)"><tspan x="0" y="0">Current Monolithic DICOM</tspan></text>
  </g>
  <rect class="st10" x="21" y="99.4" width="300" height="360" rx="10" ry="10"/>
  <g class="st3">
    <text class="st5" transform="translate(99.5 130)"><tspan x="0" y="0">DICOM Standard</tspan></text>
  </g>
  <rect class="st15" x="41" y="268.8" width="260" height="50" rx="5" ry="5"/>
  <g class="st3">
    <text class="st6" transform="translate(108.77 298.8)"><tspan x="0" y="0">Security Framework</tspan></text>
  </g>
  <rect class="st15" x="41" y="210" width="260" height="50" rx="5" ry="5"/>
  <g class="st3">
    <text class="st6" transform="translate(91.25 240)"><tspan x="0" y="0">Communication Protocols</tspan></text>
  </g>
  <rect class="st15" x="43" y="390" width="260" height="50" rx="5" ry="5"/>
  <g class="st3">
    <text class="st6" transform="translate(136.03 420)"><tspan x="0" y="0">Annotations</tspan></text>
  </g>
  <rect class="st15" x="41" y="330" width="260" height="50" rx="5" ry="5"/>
  <g class="st3">
    <text class="st6" transform="translate(141.81 360)"><tspan x="0" y="0">Metadata</tspan></text>
  </g>
  <rect class="st15" x="41" y="150" width="260" height="50" rx="5" ry="5"/>
  <g class="st3">
    <text class="st6" transform="translate(139.1 180)"><tspan x="0" y="0">Pixel Data</tspan></text>
  </g>
  <g class="st3">
    <g class="st3">
      <text class="st0" transform="translate(414.9 80)"><tspan x="0" y="0">Proposed Modular Architecture</tspan></text>
    </g>
  </g>
  <rect class="st13" x="414" y="160" width="300" height="50" rx="5" ry="5"/>
  <g class="st3">
    <g class="st3">
      <text class="st5" transform="translate(438.33 190)"><tspan x="0" y="0">Communication (HL7 FHIR, APIs)</tspan></text>
    </g>
  </g>
  <rect class="st14" x="625.7" y="220" width="90" height="90" rx="5" ry="5"/>
  <rect class="st14" x="624.7" y="220" width="90" height="90" rx="5" ry="5"/>
  <g class="st3">
    <g class="st3">
      <text class="st8" transform="translate(629.73 243)"><tspan x="0" y="0">Annotations</tspan></text>
    </g>
  </g>
  <g class="st3">
    <g class="st3">
      <text class="st4" transform="translate(635.71 263.93)"><tspan x="0" y="0">(GeoJSON/</tspan></text>
      <text class="st4" transform="translate(635.71 278.33)"><tspan x="0" y="0">SVG)*</tspan></text>
    </g>
  </g>
  <rect class="st14" x="519" y="220" width="90" height="90" rx="5" ry="5"/>
  <g class="st3">
    <g class="st3">
      <text class="st8" transform="translate(533.81 243)"><tspan x="0" y="0">Metadata</tspan></text>
    </g>
  </g>
  <g class="st3">
    <g class="st3">
      <path d="M535.14,267.53c-.58-.73-1.07-1.59-1.48-2.58s-.6-2-.6-3.06c0-.93.15-1.82.45-2.67.35-.99.89-1.97,1.63-2.95h.76c-.47.81-.79,1.39-.94,1.74-.24.54-.43,1.1-.56,1.69-.17.73-.25,1.46-.25,2.2,0,1.88.58,3.76,1.75,5.63h-.76Z"/>
      <path d="M537.29,265v-8.59h1.14v3.53h4.46v-3.53h1.14v8.59h-1.14v-4.05h-4.46v4.05h-1.14Z"/>
      <path d="M545.87,265v-8.59h1.14v7.58h4.23v1.01h-5.37Z"/>
      <path d="M552.23,257.54v-1.01h5.56v.82c-.55.58-1.09,1.36-1.63,2.32s-.95,1.96-1.25,2.98c-.21.72-.35,1.51-.4,2.36h-1.08c.01-.68.14-1.49.4-2.45s.62-1.88,1.09-2.77.98-1.64,1.51-2.25h-4.21.01Z"/>
      <path d="M562.66,265v-8.59h5.79v1.01h-4.66v2.66h4.03v1.01h-4.03v3.9h-1.14.01Z"/>
      <path d="M569.96,265v-8.59h1.14v3.53h4.46v-3.53h1.14v8.59h-1.14v-4.05h-4.46v4.05h-1.14Z"/>
      <path d="M578.79,265v-8.59h1.14v8.59h-1.14Z"/>
      <path d="M581.95,265v-8.59h3.81c.77,0,1.35.08,1.75.23s.72.43.96.82.36.82.36,1.29c0,.61-.2,1.12-.59,1.54s-1,.68-1.83.8c.3.14.53.29.69.43.33.3.65.69.94,1.14l1.49,2.34h-1.43l-1.14-1.79c-.33-.52-.61-.91-.82-1.18s-.41-.46-.58-.57-.34-.19-.52-.23c-.13-.03-.34-.04-.63-.04h-1.32v3.81h-1.14,0ZM583.08,260.2h2.44c.52,0,.93-.05,1.22-.16s.52-.28.67-.52.23-.49.23-.77c0-.41-.15-.74-.44-1s-.76-.39-1.4-.39h-2.72v2.84h0Z"/>
      <path d="M590.74,265v-1.2h1.2v1.2c0,.44-.08.8-.23,1.07s-.4.48-.74.63l-.29-.45c.22-.1.39-.24.49-.43s.16-.46.18-.82h-.61Z"/>
      <path d="M532.31,279.4l3.3-8.59h1.22l3.52,8.59h-1.29l-1-2.6h-3.59l-.94,2.6h-1.22ZM534.79,275.87h2.91l-.9-2.38c-.27-.72-.48-1.32-.61-1.78-.11.55-.26,1.1-.46,1.64l-.94,2.52h0Z"/>
      <path d="M541.26,279.4v-8.59h3.24c.57,0,1.01.03,1.31.08.42.07.78.2,1.06.4s.51.47.69.83.26.75.26,1.17c0,.73-.23,1.35-.7,1.85s-1.3.76-2.52.76h-2.2v3.49h-1.14,0ZM542.4,274.89h2.22c.73,0,1.26-.14,1.56-.41s.46-.66.46-1.15c0-.36-.09-.67-.27-.92s-.42-.42-.72-.51c-.19-.05-.54-.08-1.06-.08h-2.2v3.07h.01Z"/>
      <path d="M549.46,279.4v-8.59h1.14v8.59h-1.14Z"/>
      <path d="M552.04,277.54l1.04-.16c.06.42.22.74.49.96s.64.33,1.12.33.84-.1,1.08-.3.35-.43.35-.69c0-.24-.1-.43-.31-.56-.14-.09-.5-.21-1.08-.36-.77-.2-1.31-.36-1.61-.51s-.53-.34-.68-.59-.23-.53-.23-.83c0-.28.06-.53.19-.77s.3-.43.52-.59c.16-.12.39-.22.67-.31s.59-.13.91-.13c.49,0,.92.07,1.29.21s.64.33.82.57.3.56.36.96l-1.03.14c-.05-.32-.18-.57-.41-.75s-.54-.27-.95-.27c-.48,0-.83.08-1.04.24s-.31.35-.31.56c0,.14.04.26.13.37s.22.21.4.28c.11.04.42.13.93.27.75.2,1.27.36,1.56.49s.53.31.69.55.25.54.25.9-.1.68-.31.99-.5.55-.89.72-.82.25-1.31.25c-.81,0-1.42-.17-1.85-.5s-.69-.83-.81-1.49l.02.02Z"/>
      <path d="M558.74,279.4v-1.2h1.2v1.2c0,.44-.08.8-.23,1.07s-.4.48-.74.63l-.29-.45c.22-.1.39-.24.49-.43s.16-.46.18-.82h-.61Z"/>
      <path d="M561.35,276.96l1.03-.14c.03.66.15,1.11.37,1.35s.52.36.91.36c.29,0,.53-.07.74-.2s.35-.31.43-.53.12-.58.12-1.08v-5.92h1.14v5.85c0,.72-.09,1.28-.26,1.67s-.45.7-.83.9-.82.31-1.33.31c-.75,0-1.33-.22-1.73-.65s-.59-1.08-.58-1.93h0Z"/>
      <path d="M567.54,276.64l1.07-.09c.05.43.17.78.35,1.06s.47.5.86.67.83.25,1.32.25c.43,0,.82-.06,1.15-.19s.58-.31.74-.53.24-.47.24-.74-.08-.5-.23-.71-.41-.37-.77-.51c-.23-.09-.74-.23-1.53-.42s-1.34-.37-1.66-.54c-.41-.21-.72-.48-.92-.8s-.3-.67-.3-1.07c0-.43.12-.84.37-1.22s.61-.66,1.08-.86,1-.29,1.58-.29c.64,0,1.2.1,1.68.31s.86.51,1.12.91.4.85.42,1.35l-1.09.08c-.06-.54-.26-.95-.59-1.23s-.84-.42-1.5-.42-1.19.13-1.5.38-.47.56-.47.91c0,.31.11.56.33.76.22.2.79.4,1.71.61s1.56.39,1.9.55c.5.23.87.52,1.11.88s.36.76.36,1.22-.13.89-.39,1.29-.64.72-1.13.94-1.04.34-1.66.34c-.78,0-1.43-.11-1.95-.34s-.94-.57-1.24-1.02-.46-.97-.47-1.54h0Z"/>
      <path d="M575.59,275.22c0-1.43.38-2.54,1.15-3.35s1.75-1.21,2.96-1.21c.79,0,1.51.19,2.14.57s1.12.91,1.46,1.58.5,1.45.5,2.31-.18,1.65-.53,2.34-.85,1.21-1.49,1.56-1.34.53-2.09.53c-.81,0-1.53-.2-2.17-.59s-1.12-.92-1.45-1.6-.49-1.39-.49-2.14h0ZM576.76,275.23c0,1.04.28,1.85.83,2.45s1.25.89,2.09.89,1.56-.3,2.11-.9.83-1.46.83-2.56c0-.7-.12-1.31-.35-1.83s-.58-.93-1.04-1.21-.97-.43-1.53-.43c-.8,0-1.5.28-2.08.83s-.87,1.48-.87,2.77h0Z"/>
      <path d="M585.26,279.4v-8.59h1.17l4.51,6.74v-6.74h1.09v8.59h-1.17l-4.51-6.75v6.75h-1.09Z"/>
      <path d="M594.08,279.4v-1.2h1.2v1.2c0,.44-.08.8-.23,1.07s-.4.48-.74.63l-.29-.45c.22-.1.39-.24.49-.43s.16-.46.18-.82h-.61Z"/>
      <path d="M536.59,293.8v-8.59h2.96c.67,0,1.18.04,1.53.12.49.11.91.32,1.26.62.45.38.79.87,1.02,1.47s.34,1.28.34,2.04c0,.65-.08,1.23-.23,1.73s-.35.92-.59,1.25-.5.59-.78.78-.62.33-1.03.43-.86.15-1.38.15h-3.1ZM537.73,292.79h1.83c.57,0,1.01-.05,1.33-.16s.58-.25.77-.45c.27-.27.48-.63.63-1.09s.23-1.01.23-1.66c0-.9-.15-1.59-.44-2.07s-.65-.81-1.08-.97c-.3-.12-.79-.18-1.47-.18h-1.8v6.58Z"/>
      <path d="M549.18,293.03c-.39.33-.77.57-1.13.7s-.75.21-1.16.21c-.68,0-1.21-.17-1.58-.5s-.55-.76-.55-1.28c0-.3.07-.58.21-.83s.32-.45.54-.61.48-.27.76-.35c.21-.05.52-.11.94-.16.85-.1,1.48-.22,1.88-.36v-.28c0-.43-.1-.73-.3-.91-.27-.24-.67-.36-1.2-.36-.5,0-.86.09-1.1.26s-.41.48-.52.92l-1.03-.14c.09-.44.25-.8.46-1.07s.53-.48.93-.63.88-.22,1.41-.22.96.06,1.29.19.58.28.73.47.27.43.33.72c.04.18.05.5.05.97v1.41c0,.98.02,1.6.07,1.86s.13.51.27.75h-1.1c-.11-.22-.18-.47-.21-.77h.01ZM549.09,290.68c-.38.16-.96.29-1.72.4-.43.06-.74.13-.92.21s-.32.19-.42.34-.15.32-.15.5c0,.28.11.52.32.7s.52.28.93.28.77-.09,1.08-.27.55-.42.7-.73c.11-.24.17-.59.17-1.05v-.39h0Z"/>
      <path d="M554.1,292.86l.15.93c-.3.06-.56.09-.8.09-.38,0-.68-.06-.89-.18s-.36-.28-.45-.48-.13-.61-.13-1.25v-3.58h-.77v-.82h.77v-1.54l1.05-.63v2.17h1.06v.82h-1.06v3.64c0,.3.02.49.06.58s.1.15.18.21.2.08.36.08c.12,0,.27-.01.46-.04h.01Z"/>
      <path d="M559.19,293.03c-.39.33-.77.57-1.13.7s-.75.21-1.16.21c-.68,0-1.21-.17-1.58-.5s-.55-.76-.55-1.28c0-.3.07-.58.21-.83s.32-.45.54-.61.48-.27.76-.35c.21-.05.52-.11.94-.16.85-.1,1.48-.22,1.88-.36v-.28c0-.43-.1-.73-.3-.91-.27-.24-.67-.36-1.2-.36-.5,0-.86.09-1.1.26s-.41.48-.52.92l-1.03-.14c.09-.44.25-.8.46-1.07s.53-.48.93-.63.88-.22,1.41-.22.96.06,1.29.19.58.28.73.47.27.43.33.72c.04.18.05.5.05.97v1.41c0,.98.02,1.6.07,1.86s.13.51.27.75h-1.1c-.11-.22-.18-.47-.21-.77h.01ZM559.1,290.68c-.38.16-.96.29-1.72.4-.43.06-.74.13-.92.21s-.32.19-.42.34-.15.32-.15.5c0,.28.11.52.32.7s.52.28.93.28.77-.09,1.08-.27.55-.42.7-.73c.11-.24.17-.59.17-1.05v-.39h0Z"/>
      <path d="M562.78,293.8h-.98v-8.59h1.05v3.06c.45-.56,1.01-.84,1.71-.84.38,0,.75.08,1.09.23s.62.37.84.65.39.62.52,1.01.19.82.19,1.27c0,1.07-.26,1.89-.79,2.47s-1.16.87-1.9.87-1.31-.31-1.73-.92v.78h0ZM562.76,290.64c0,.75.1,1.29.3,1.62.33.54.78.81,1.35.81.46,0,.86-.2,1.2-.6s.5-1,.5-1.79-.16-1.41-.48-1.8-.71-.58-1.17-.58-.86.2-1.2.6-.5.98-.5,1.74Z"/>
      <path d="M572.54,293.03c-.39.33-.77.57-1.13.7s-.75.21-1.16.21c-.68,0-1.21-.17-1.58-.5s-.55-.76-.55-1.28c0-.3.07-.58.21-.83s.32-.45.54-.61.48-.27.76-.35c.21-.05.52-.11.94-.16.85-.1,1.48-.22,1.88-.36v-.28c0-.43-.1-.73-.3-.91-.27-.24-.67-.36-1.2-.36-.5,0-.86.09-1.1.26s-.41.48-.52.92l-1.03-.14c.09-.44.25-.8.46-1.07s.53-.48.93-.63.88-.22,1.41-.22.96.06,1.29.19.58.28.73.47.27.43.33.72c.04.18.05.5.05.97v1.41c0,.98.02,1.6.07,1.86s.13.51.27.75h-1.1c-.11-.22-.18-.47-.21-.77h.01ZM572.45,290.68c-.38.16-.96.29-1.72.4-.43.06-.74.13-.92.21s-.32.19-.42.34-.15.32-.15.5c0,.28.11.52.32.7s.52.28.93.28.77-.09,1.08-.27.55-.42.7-.73c.11-.24.17-.59.17-1.05v-.39h0Z"/>
      <path d="M574.73,291.94l1.04-.16c.06.42.22.74.49.96s.64.33,1.12.33.84-.1,1.08-.3.35-.43.35-.69c0-.24-.1-.43-.31-.56-.14-.09-.5-.21-1.08-.36-.77-.2-1.31-.36-1.61-.51s-.53-.34-.68-.59-.23-.53-.23-.83c0-.28.06-.53.19-.77s.3-.43.52-.59c.16-.12.39-.22.67-.31s.59-.13.91-.13c.49,0,.92.07,1.29.21s.64.33.82.57.3.56.36.96l-1.03.14c-.05-.32-.18-.57-.41-.75s-.54-.27-.95-.27c-.48,0-.83.08-1.04.24s-.31.35-.31.56c0,.14.04.26.13.37s.22.21.4.28c.11.04.42.13.93.27.75.2,1.27.36,1.56.49s.53.31.69.55.25.54.25.9-.1.68-.31.99-.5.55-.89.72-.82.25-1.31.25c-.81,0-1.42-.17-1.85-.5s-.69-.83-.81-1.49l.02.02Z"/>
      <path d="M585.41,291.8l1.09.13c-.17.64-.49,1.13-.96,1.48s-1.06.53-1.78.53c-.91,0-1.63-.28-2.17-.84s-.8-1.35-.8-2.36.27-1.86.81-2.44,1.24-.87,2.1-.87,1.51.28,2.04.85.79,1.36.79,2.39v.28h-4.64c.04.68.23,1.21.58,1.57s.78.54,1.3.54c.39,0,.72-.1.99-.3s.49-.53.65-.97h0ZM581.95,290.09h3.47c-.05-.52-.18-.92-.4-1.18-.34-.41-.77-.61-1.31-.61-.48,0-.89.16-1.22.49s-.51.76-.55,1.3h.01Z"/>
      <path d="M587.4,291.94l1.04-.16c.06.42.22.74.49.96s.64.33,1.12.33.84-.1,1.08-.3.35-.43.35-.69c0-.24-.1-.43-.31-.56-.14-.09-.5-.21-1.08-.36-.77-.2-1.31-.36-1.61-.51s-.53-.34-.68-.59-.23-.53-.23-.83c0-.28.06-.53.19-.77s.3-.43.52-.59c.16-.12.39-.22.67-.31s.59-.13.91-.13c.49,0,.92.07,1.29.21s.64.33.82.57.3.56.36.96l-1.03.14c-.05-.32-.18-.57-.41-.75s-.54-.27-.95-.27c-.48,0-.83.08-1.04.24s-.31.35-.31.56c0,.14.04.26.13.37s.22.21.4.28c.11.04.42.13.93.27.75.2,1.27.36,1.56.49s.53.31.69.55.25.54.25.9-.1.68-.31.99-.5.55-.89.72-.82.25-1.31.25c-.81,0-1.42-.17-1.85-.5s-.69-.83-.81-1.49l.02.02Z"/>
      <path d="M594.52,296.33h-.76c1.17-1.88,1.75-3.75,1.75-5.63,0-.73-.08-1.46-.25-2.19-.13-.59-.32-1.15-.56-1.69-.15-.35-.47-.94-.94-1.76h.76c.73.98,1.28,1.96,1.63,2.95.3.85.45,1.74.45,2.67,0,1.05-.2,2.07-.61,3.06s-.9,1.84-1.47,2.58h0Z"/>
      <path d="M597.4,286.79l.27-.83c.62.22,1.07.41,1.35.57-.07-.71-.11-1.19-.12-1.46h.85c-.01.39-.06.87-.13,1.45.4-.2.86-.39,1.38-.56l.27.83c-.5.16-.98.27-1.46.33.24.21.57.58,1.01,1.11l-.7.5c-.23-.31-.49-.73-.8-1.26-.29.55-.54.97-.76,1.26l-.69-.5c.45-.56.78-.93.97-1.11-.5-.1-.98-.21-1.44-.33h0Z"/>
    </g>
  </g>
  <rect class="st14" x="414" y="220" width="90" height="90" rx="5" ry="5"/>
  <g class="st3">
    <g class="st3">
      <text class="st8" transform="translate(427.1 243)"><tspan x="0" y="0">Pixel Data</tspan></text>
    </g>
  </g>
  <g class="st3">
    <g class="st3">
      <text class="st4" transform="translate(420.88 265.26)"><tspan x="0" y="0">(DICOM/TIFF/</tspan></text>
      <text class="st4" transform="translate(420.88 279.66)"><tspan x="0" y="0">OME-TIFF/</tspan></text>
      <text class="st4" transform="translate(420.88 294.06)"><tspan x="0" y="0">Zarr/SVS)*</tspan></text>
    </g>
  </g>
  <rect class="st9" x="414" y="320" width="300" height="50" rx="5" ry="5"/>
  <g class="st3">
    <g class="st3">
      <text class="st5" transform="translate(486.18 350)"><tspan x="0" y="0">APIs / Microservices</tspan></text>
    </g>
  </g>
  <rect class="st11" x="414" y="380" width="140" height="80" rx="5" ry="5"/>
  <g class="st3">
    <g class="st3">
      <text class="st2" transform="translate(442.36 410)"><tspan x="0" y="0">AI Integration</tspan></text>
    </g>
  </g>
  <g class="st3">
    <g class="st3">
      <text class="st1" transform="translate(450.88 430)"><tspan x="0" y="0">(ML Models)</tspan></text>
    </g>
  </g>
  <rect class="st11" x="574" y="380" width="140" height="80" rx="5" ry="5"/>
  <g class="st3">
    <g class="st3">
      <text class="st2" transform="translate(599.25 410)"><tspan x="0" y="0">Cloud Storage</tspan></text>
    </g>
  </g>
  <g class="st3">
    <g class="st3">
      <text class="st1" transform="translate(590.87 430)"><tspan x="0" y="0">(Tile-Based Access)</tspan></text>
    </g>
  </g>
  <rect class="st16" x="400" y="130" width="326.83" height="335"/>
  <rect class="st12" x="414.5" y="98.76" width="300" height="50" rx="5" ry="5"/>
  <g class="st3">
    <g class="st3">
      <text class="st5" transform="translate(435.2 130)"><tspan x="0" y="0">Security Overlay (NIST SP 800-53)</tspan></text>
    </g>
  </g>
</svg>